<svg xmlns="http://www.w3.org/2000/svg" xmlns:xlink="http://www.w3.org/1999/xlink" viewBox="0,0,256,256" width="30px" height="30px" fill-rule="nonzero"><g fill-opacity="0.78824" fill="#5da625" fill-rule="nonzero" stroke-opacity="0.78824" stroke="#5da625" stroke-width="8.53333" stroke-linecap="butt" stroke-linejoin="round" stroke-miterlimit="10" stroke-dasharray="" stroke-dashoffset="0" font-family="none" font-weight="none" font-size="none" text-anchor="none" style="mix-blend-mode: normal"><path d="M238.34424,56.32101c1.37177,3.24136 0.61291,6.9924 -1.91091,9.44565l-136.53333,136.53333c-3.33252,3.33114 -8.73414,3.33114 -12.06666,0l-59.73334,-59.73333c-2.22923,-2.14031 -3.12721,-5.31854 -2.34763,-8.30896c0.77958,-2.99042 3.11491,-5.32575 6.10534,-6.10533c2.99042,-0.77958 6.16865,0.1184 8.30896,2.34763l53.7,53.7l130.5,-130.5c1.54557,-1.59073 3.64972,-2.51728 5.86667,-2.58333c3.51815,-0.10375 6.73914,1.96299 8.1109,5.20434z" id="strokeMainSVG"></path></g><g fill="#ffffff" fill-rule="nonzero" stroke="none" stroke-width="1" stroke-linecap="butt" stroke-linejoin="miter" stroke-miterlimit="10" stroke-dasharray="" stroke-dashoffset="0" font-family="none" font-weight="none" font-size="none" text-anchor="none" style="mix-blend-mode: normal"><g transform="scale(8.53333,8.53333)"><path d="M26.98047,5.99023c-0.2598,0.00774 -0.50638,0.11632 -0.6875,0.30273l-15.29297,15.29297l-6.29297,-6.29297c-0.25082,-0.26124 -0.62327,-0.36647 -0.97371,-0.27511c-0.35044,0.09136 -0.62411,0.36503 -0.71547,0.71547c-0.09136,0.35044 0.01388,0.72289 0.27511,0.97371l7,7c0.39053,0.39037 1.02353,0.39037 1.41406,0l16,-16c0.29576,-0.28749 0.38469,-0.72707 0.22393,-1.10691c-0.16075,-0.37985 -0.53821,-0.62204 -0.9505,-0.60988z"></path></g></g></svg>